<svg id="Layer_1" data-name="Layer 1" xmlns="http://www.w3.org/2000/svg" viewBox="0 0 500 500"><defs><style>.cls-1{fill:#f3964d;}.cls-2{fill:#fff;}</style></defs><title>addressBook</title><path class="cls-1" d="M320.79,127.44a4.52,4.52,0,0,0-3.31-4.32L93.09,33.23H85.27c-5.8,0-7.82-.37-7.82,4.42V389c0,9.11,6.07,17.11,14.26,19.23L313,488.55h7.82Z"/><path class="cls-1" d="M344.47,116.76v334h50.75a22.13,22.13,0,0,0,22.1-22.1V228.31l.13-192.55a22.12,22.12,0,0,0-22.1-22.1H113.49L329.77,96.84A20.79,20.79,0,0,1,344.47,116.76Z"/><path class="cls-2" d="M220.47,279.62,215.4,260c17.56-3.41,29.08-24.9,27.41-56.25-2.15-40.55-25.42-81.87-52-92.29s-46.35,14-44.19,54.54c1.67,31.51,16.15,63.3,35,80.88l-2.49,15.87c-33.15-1.69-51.73,30.67-57.56,79.54-3.28,27.46,157.66,101.31,149.66,59.15C261.42,349.81,254.67,305.51,220.47,279.62Z"/></svg>