<?xml version="1.0" encoding="UTF-8"?><svg xmlns="http://www.w3.org/2000/svg" data-name="Layer 1" id="Layer_1" viewBox="0 0 500 500">
  <defs>
    <style>.cls-1{fill:#177f95;}</style>
  </defs>
  <title>folder</title>
  <path class="cls-1" d="M133.63,215.59a4.17,4.17,0,0,0-4,3L46.92,425.18v7.19c0,5.34-.34,7.2,4.06,7.2h323.4c8.38,0,15.75-5.59,17.69-13.12L466,222.79v-7.2Z"/>
  <path class="cls-1" d="M123.8,193.8H431.21V147.09a20.36,20.36,0,0,0-20.34-20.34H226.48L189.2,74.63h-140A20.36,20.36,0,0,0,28.9,95V406.4l76.57-199.06A19.13,19.13,0,0,1,123.8,193.8Z"/>
</svg>
