<?xml version="1.0" encoding="UTF-8"?><svg xmlns="http://www.w3.org/2000/svg" data-name="Layer 1" id="Layer_1" viewBox="0 0 500 500">
  <defs>
    <style>.cls-1{fill:#177f95;}.cls-2,.cls-3{fill:#fff;}.cls-3{stroke:#177f95;stroke-miterlimit:10;stroke-width:9px;}</style>
  </defs>
  <title>group</title>
  <circle class="cls-1" cx="246" cy="245" r="236"/>
  <path class="cls-2" d="M347.33,221.71l-4.18-15c18.42-8.76,31.56-30.88,31.56-57,0-33.76-21.89-61.12-48.89-61.12S276.93,116,276.93,149.76c0,26.23,13.28,48.42,31.85,57.08l-3.46,14.33C271,230.8,249.92,264.5,241.17,308c-4.91,24.44,175.23,33.18,169.25,0C403.09,267.37,381.42,232.31,347.33,221.71Z"/>
  <path class="cls-2" d="M197.08,231.41l-4.18-15c18.42-8.77,31.56-30.88,31.56-57,0-33.75-21.89-61.11-48.89-61.11s-48.89,27.36-48.89,61.11c0,26.24,13.28,48.43,31.85,57.09l-3.46,14.33c-34.33,9.63-55.4,43.33-64.15,86.83-4.91,24.44,175.23,33.18,169.25,0C252.84,277.07,231.17,242,197.08,231.41Z"/>
  <path class="cls-3" d="M273.45,272.94l-5.06-18.09c22.25-10.59,38.13-37.3,38.13-68.82,0-40.77-26.44-73.82-59.06-73.82S188.41,145.26,188.41,186c0,31.69,16.05,58.49,38.48,69l-4.19,17.3c-41.46,11.63-66.91,52.34-77.48,104.88-5.93,29.51,211.65,40.07,204.42,0C340.79,328.09,314.61,285.74,273.45,272.94Z"/>
</svg>
