<?xml version="1.0" encoding="UTF-8"?><svg xmlns="http://www.w3.org/2000/svg" viewBox="0 0 500 500">
  <defs>
    <style>.cls-1{fill:#305d74;}.cls-2{fill:#6ac59a;}.cls-3{fill:#f3964d;}.cls-4{fill:none;stroke:#fff;stroke-miterlimit:10;stroke-width:17px;}</style>
  </defs>
  <title>location</title>
  <g id="Plus">
    <polygon class="cls-1" points="432.15 447.73 71.15 447.73 94.15 313.73 393.15 284.73 432.15 447.73"/>
    <polygon class="cls-2" points="303.87 404.93 175.17 419.23 142.67 343.83 246.67 315.23 303.87 404.93"/>
    <path class="cls-3" d="M272.37,239.47c-3.18-11.88-24.67-17.25-54.1-15.44L190,118.58c13.37-8.43,20.78-17.4,18.84-24.64-3.66-13.64-148.6,25.2-144.94,38.84,1.94,7.24,12.84,11.3,28.63,11.91l28.25,105.46c-26.39,13.14-42.31,28.54-39.13,40.42,2.25,8.39,45.11,1.69,89.64-9.66l20.26,75.6,14.68,13.85,5.09-19.15L191.07,275.6C234.85,263.21,274.6,247.78,272.37,239.47Z"/>
    <line class="cls-4" x1="171.65" x2="195.65" y1="137.65" y2="223.65"/>
  </g>
</svg>
