<?xml version="1.0" encoding="UTF-8"?><svg xmlns="http://www.w3.org/2000/svg" viewBox="0 0 500 500">
  <defs>
    <style>.cls-1{fill:#49bac5;}.cls-2{fill:#35987a;}.cls-3{fill:#6ac59a;}.cls-4{fill:none;stroke:#4d4d4d;stroke-linecap:round;stroke-linejoin:round;stroke-width:20px;}</style>
  </defs>
  <title>map</title>
  <g id="Plus">
    <circle class="cls-1" cx="232.98" cy="250.82" r="165.5"/>
    <path class="cls-2" d="M111.06,210.57c3.12-.9,6.3-1.94,9.53-1.62,3.85.37,7.22,2.62,10.41,4.8a18.1,18.1,0,0,1,4.55,3.93c1.61,2.2,2.12,5,2.55,7.66a315.19,315.19,0,0,1,3.84,61.9c-.24,6.81-.47,14.36,3.95,19.54,2.24,2.62,5.4,4.25,8.47,5.82l9.33,4.76c2.2,1.12,4.57,2.41,5.54,4.67a10.78,10.78,0,0,1,.41,5.21c-.93,10.79-1.4,22.94,5.85,31,3.21,3.56,7.58,5.84,11.15,9a37.32,37.32,0,0,0,5,4.32,27.46,27.46,0,0,0,5.65,2.34c13.2,4.6,24.41,13.47,35.34,22.19a16.45,16.45,0,0,1,4.47,4.64c2.35,4.28.52,9.59,1,14.44a50.69,50.69,0,0,1-31.39,1.41c-9.75-2.73-18.55-8.36-28.43-10.57-5.61-1.25-11.41-1.36-17.07-2.33a60.28,60.28,0,0,1-31.77-16.4,126.41,126.41,0,0,1-9.41-10.74c-3.67-4.53-7.35-9.06-10.88-13.7a294.68,294.68,0,0,1-27.52-43.49c-2-3.77-3.82-7.6-5.39-11.54a90.75,90.75,0,0,1-5.55-21c-1.35-9.52-1.29-19.25-3.41-28.63-1.65-7.29-4.61-14.33-5.21-21.78s1.86-15.86,8.4-19.48c1.2-.66-.08-3.56-.65-4.22,3,4.79,12.7,2.58,17.44,2.2A119.7,119.7,0,0,0,111.06,210.57Z"/>
    <path class="cls-3" d="M300.66,125.42c-4.87,1.63-10,2.11-15.11,3a99.31,99.31,0,0,0-67.75,46.82c-3.2,5.44-5.44,13.42-.42,17.26,2.08,1.6,4.84,1.9,7.45,2.14L250.16,197c7.2.67,15.4,1.92,19.31,8s1.55,14.29-3.18,19.61-11.36,8.45-17.55,12-12.42,7.84-15.28,14.35a32.78,32.78,0,0,0-2.23,10.38,116.47,116.47,0,0,0,.4,24.05c.76,6.2,2.25,12.8,6.88,17,5.14,4.68,12.72,5.16,19.67,5.4l34.37,1.2c2.56.09,5.2.2,7.48,1.37s4,3.42,5.93,5.3c7.33,7.32,18.23,10,26.08,16.73,6.62,5.71,11.06,14.34,19.2,17.57,7.23,2.88,15.49.63,22.57-2.62.94-3.42,4.08-5.67,6.61-8.15,8.08-7.92,10.81-19.67,13.18-30.74,7.52-35.13,15-71.81,6-106.59a185.79,185.79,0,0,0-10-27.54c-2.48-5.67-5.39-11.64-10.75-14.71-2-1.18-4.43-1.92-6-3.69a14.2,14.2,0,0,1-2.14-4c-5.06-12-14.12-21.78-23-31.3-3.37-3.61-6.83-7.29-11.21-9.58-5.5-2.88-14.52-4.41-18.63.94C313.16,118.07,308.27,122.89,300.66,125.42Z"/>
    <circle class="cls-4" cx="235.48" cy="250.32" r="170"/>
    <path class="cls-4" d="M319.48,102.32c3.67,8.29-9,20.18-17.56,23s-18,1.72-26.92,3.36c-19.48,3.59-33.9,19.58-46.75,34.64-7.7,9-15.91,20.8-11.33,31.74l39.36,2.47c3,.19,6.09.42,8.61,2,4.44,2.83,5.46,8.76,6,14,1,9-11.42,14.74-38.42,33.74-6.44,13.92,2.6,28.85,1.55,44.15-.21,3.1-.27,6.4,1.29,9.09s4.51,4.32,7.45,5.39c22.57,8.27,53.08-6,69.1,11.88,3.5,3.92,5.6,8.87,8.65,13.15,9.74,13.68,37.88,25.74,53,18.34"/>
    <path class="cls-4" d="M72.41,215.14a194,194,0,0,1,55.09-6.52c4.25.11,9.05.64,11.62,4,1.52,2,1.91,4.64,2.21,7.15a247.42,247.42,0,0,1,.35,55.48C140.11,290,139.43,309,152.94,315c5.05,2.25,11.33,2.05,15.32,5.87,6.66,6.4,1.59,17.41,1.83,26.65.47,17.76,20.53,27.25,37.2,33.39s36.24,17.95,33.91,35.56"/>
  </g>
</svg>
