<svg xmlns="http://www.w3.org/2000/svg" viewBox="0 0 500 500"><defs><style>.cls-1{fill:#49bac5;}.cls-2{fill:#35987a;}.cls-3{fill:#6ac59a;}.cls-4{fill:none;stroke:#4d4d4d;stroke-linecap:round;stroke-linejoin:round;stroke-width:20px;}</style></defs><title>map</title><g id="Plus"><ellipse class="cls-1" cx="248.73" cy="250.99" rx="218.51" ry="221.63"/><path class="cls-2" d="M87.76,197.09c4.12-1.21,8.32-2.6,12.59-2.18,5.07.51,9.52,3.52,13.73,6.43a23.81,23.81,0,0,1,6,5.28c2.12,2.93,2.79,6.66,3.36,10.25a428.24,428.24,0,0,1,5.07,82.89c-.32,9.11-.63,19.23,5.22,26.16,2.95,3.52,7.12,5.7,11.17,7.8l12.33,6.37c2.91,1.5,6,3.23,7.32,6.26.92,2.17.73,4.63.53,7-1.22,14.44-1.85,30.71,7.73,41.48,4.23,4.76,10,7.82,14.72,12.1,2.18,2,4.14,4.22,6.62,5.78a36.12,36.12,0,0,0,7.47,3.14c17.43,6.15,32.22,18,46.65,29.7,2.23,1.81,4.52,3.68,5.9,6.22,3.1,5.73.7,12.84,1.37,19.34A66,66,0,0,1,214.13,473c-12.87-3.66-24.5-11.2-37.55-14.16-7.4-1.67-15.05-1.82-22.53-3.11a79.31,79.31,0,0,1-42-22,170.17,170.17,0,0,1-12.41-14.38C94.84,413.29,90,407.22,85.31,401A395.71,395.71,0,0,1,49,342.78c-2.58-5.06-5-10.18-7.13-15.47a122.74,122.74,0,0,1-7.32-28.11c-1.79-12.75-1.7-25.78-4.5-38.34-2.18-9.77-6.1-19.19-6.88-29.17s2.45-21.24,11.09-26.08c1.58-.89-.11-4.77-.86-5.66,3.92,6.41,16.77,3.46,23,3A156.19,156.19,0,0,0,87.76,197.09Z"/><path class="cls-3" d="M338.09,83.07c-6.44,2.17-13.26,2.82-19.95,4-36.86,6.43-70.48,30-89.45,62.68-4.23,7.3-7.18,18-.55,23.13,2.74,2.13,6.39,2.53,9.83,2.86l33.44,3.16c9.5.9,20.34,2.57,25.5,10.71s2,19.14-4.2,26.26-15,11.32-23.17,16-16.4,10.51-20.18,19.23c-1.89,4.36-2.53,9.16-2.94,13.9a158.24,158.24,0,0,0,.53,32.2c1,8.31,3,17.14,9.08,22.77,6.79,6.26,16.8,6.91,26,7.23l45.38,1.61c3.37.12,6.87.27,9.87,1.83s5.34,4.58,7.83,7.1c9.69,9.8,24.07,13.33,34.43,22.4,8.75,7.65,14.62,19.2,25.35,23.53,9.56,3.86,20.45.84,29.8-3.51,1.24-4.58,5.39-7.59,8.73-10.92,10.68-10.6,14.28-26.33,17.41-41.15,9.93-47,19.84-96.16,7.94-142.74-3.24-12.68-8-24.89-13.21-36.89-3.28-7.58-7.11-15.58-14.2-19.7-2.7-1.57-5.84-2.56-7.9-4.93a19.25,19.25,0,0,1-2.83-5.34c-6.68-16.07-18.64-29.17-30.38-41.92-4.45-4.83-9-9.77-14.81-12.83-7.25-3.85-19.16-5.91-24.58,1.25C354.6,73.22,348.13,79.67,338.09,83.07Z"/><ellipse class="cls-4" cx="252.03" cy="250.32" rx="224.45" ry="227.65"/><path class="cls-4" d="M362.94,52.13c4.84,11.1-11.83,27-23.19,30.86s-23.77,2.3-35.54,4.5c-25.72,4.8-44.75,26.22-61.73,46.38-10.17,12.09-21,27.85-15,42.51l52,3.31c3.93.25,8.05.56,11.37,2.7,5.86,3.78,7.2,11.72,7.94,18.72,1.26,12.09-15.08,19.75-50.73,45.2-8.5,18.63,3.44,38.62,2,59.11-.28,4.15-.35,8.57,1.71,12.18s6,5.78,9.84,7.22c29.79,11.07,70.08-8.08,91.22,15.91,4.63,5.24,7.4,11.87,11.43,17.6,12.85,18.33,50,34.48,69.92,24.57"/><path class="cls-4" d="M36.73,203.2a253.06,253.06,0,0,1,72.74-8.73c5.6.15,12,.86,15.34,5.4,2,2.7,2.52,6.22,2.92,9.58a336.22,336.22,0,0,1,.46,74.3c-2.07,19.69-3,45.11,14.87,53.18,6.66,3,15,2.75,20.22,7.87,8.8,8.57,2.1,23.31,2.42,35.68.62,23.79,27.1,36.5,49.11,44.72s47.85,24,44.77,47.62"/></g></svg>