<?xml version="1.0" encoding="UTF-8"?><svg xmlns="http://www.w3.org/2000/svg" data-name="Layer 1" id="Layer_1" viewBox="0 0 500 500">
  <defs>
    <style>.cls-1{fill:#f3964d;}.cls-2,.cls-3{fill:#fff;}.cls-3{stroke:#f3964d;stroke-miterlimit:10;stroke-width:9px;}</style>
  </defs>
  <title>people</title>
  <circle class="cls-1" cx="250.65" cy="245.31" r="236"/>
  <path class="cls-2" d="M352,222l-4.19-15c18.42-8.77,31.57-30.88,31.57-57,0-33.75-21.89-61.12-48.9-61.12s-48.89,27.37-48.89,61.12c0,26.24,13.29,48.42,31.86,57.09L310,221.48c-34.32,9.63-55.39,43.33-64.15,86.83-4.91,24.44,175.24,33.18,169.25,0C407.74,267.68,386.07,232.62,352,222Z"/>
  <path class="cls-2" d="M201.74,231.71l-4.19-15c18.42-8.76,31.57-30.87,31.57-57,0-33.75-21.89-61.12-48.9-61.12S131.33,126,131.33,159.76c0,26.23,13.29,48.42,31.86,57.09l-3.47,14.33c-34.32,9.62-55.4,43.33-64.15,86.83-4.91,24.44,175.24,33.18,169.25,0C257.49,277.38,235.82,242.32,201.74,231.71Z"/>
  <path class="cls-3" d="M278.1,273.24l-5.05-18.09c22.24-10.58,38.12-37.29,38.12-68.81,0-40.77-26.44-73.82-59.05-73.82s-59.06,33.05-59.06,73.82c0,31.68,16.05,58.48,38.48,68.95l-4.18,17.31c-41.46,11.62-66.92,52.33-77.48,104.87-5.94,29.52,211.64,40.08,204.42,0C345.44,328.4,319.27,286.05,278.1,273.24Z"/>
</svg>
