<?xml version="1.0" encoding="UTF-8"?><svg xmlns="http://www.w3.org/2000/svg" viewBox="0 0 500 500">
  <defs>
    <style>.cls-1{fill:#fff;}.cls-2{fill:#177f95;}.cls-3{fill:none;stroke:#177f95;stroke-linecap:round;stroke-linejoin:round;stroke-width:40px;}</style>
  </defs>
  <title>task_1</title>
  <g id="Plus">
    <rect class="cls-1" height="381" width="302" x="79" y="69"/>
    <path class="cls-2" d="M367,83V436H93V83H367m16-28H77A12,12,0,0,0,65,67V452a12,12,0,0,0,12,12H383a12,12,0,0,0,12-12V67a12,12,0,0,0-12-12Z"/>
    <path class="cls-1" d="M126.11,97.5a14.06,14.06,0,0,1-5.61-1V42.22a14.24,14.24,0,0,1,5.61-1h49.61L177.5,34c2.8-11.29,24.39-23.47,54.39-23.47S283.47,22.68,286.27,34l1.79,7.21h45.83a14.24,14.24,0,0,1,5.61,1V96.46a14.06,14.06,0,0,1-5.61,1Z"/>
    <path class="cls-2" d="M231.89,20c12.79,0,24.88,2.46,34.05,6.93,7.91,3.85,10.73,7.79,11.11,9.33l3.58,14.42H330V88H130V50.68h53.15l3.58-14.42c.38-1.54,3.19-5.48,11.11-9.33C207,22.46,219.1,20,231.89,20m0-19c-32.48,0-59.31,13.35-63.61,30.68H126.11c-8.31,0-15.11,3.77-15.11,8.37V98.63c0,4.6,6.8,8.37,15.11,8.37H333.89c8.31,0,15.11-3.77,15.11-8.37V40.05c0-4.6-6.8-8.37-15.11-8.37h-38.4C291.2,14.35,264.37,1,231.89,1Z"/>
    <polyline class="cls-3" points="137.05 294.2 220.48 351.96 321.55 167.46"/>
    <ellipse class="cls-2" cx="230" cy="46.5" rx="19.5" ry="16.5"/>
  </g>
</svg>
