<?xml version="1.0" encoding="UTF-8"?><svg xmlns="http://www.w3.org/2000/svg" data-name="Layer 1" id="Layer_1" viewBox="0 0 500 500">
  <defs>
    <style>.cls-1{fill:#454545;}</style>
  </defs>
  <title>telephone</title>
  <path class="cls-1" d="M394.07,312s-17.27-20.72-36.38-6.42c-14.24,10.65-39.84,34.34-46,40.08,0,0-42.79-22.81-68.11-43.64-37.51-30.84-62.59-68.92-75.73-90.58L158,192.93c3.42-3.68,29.63-31.74,41-47,14.27-19.1-6.42-36.36-6.42-36.36s-58.21-58.21-71.46-69.76S92.6,34.68,92.6,34.68c-27.89,18-56.78,33.68-58.5,109C34,214.2,87.57,286.92,145.44,343.22c58,63.6,137.61,127.32,214.55,127.25,75.31-1.69,91-30.6,109-58.49,0,0,6.44-15.25-5.12-28.51S394.07,312,394.07,312Z"/>
</svg>
