<svg id="Layer_1" data-name="Layer 1" xmlns="http://www.w3.org/2000/svg" viewBox="0 0 500 500"><defs><style>.cls-1{fill:#177f95;}.cls-2{fill:#fff;}</style></defs><title>users</title><path class="cls-1" d="M322.79,130.44a4.52,4.52,0,0,0-3.31-4.32L95.09,36.23H87.27c-5.8,0-7.82-.37-7.82,4.42V392c0,9.11,6.07,17.11,14.26,19.23L315,491.55h7.82Z"/><path class="cls-1" d="M346.47,119.76v334h50.75a22.13,22.13,0,0,0,22.1-22.1V231.31l.13-192.55a22.12,22.12,0,0,0-22.1-22.1H115.49L331.77,99.84A20.79,20.79,0,0,1,346.47,119.76Z"/><path class="cls-2" d="M222.47,282.62,217.4,263c17.56-3.41,29.08-24.9,27.41-56.25-2.15-40.55-25.42-81.87-52-92.29s-46.35,14-44.19,54.54c1.67,31.51,16.15,63.3,35,80.88l-2.49,15.87c-33.15-1.69-51.73,30.67-57.56,79.54-3.28,27.46,157.66,101.31,149.66,59.15C263.42,352.81,256.67,308.51,222.47,282.62Z"/></svg>