<?xml version="1.0" encoding="UTF-8"?><svg xmlns="http://www.w3.org/2000/svg" xmlns:cc="http://creativecommons.org/ns#" xmlns:dc="http://purl.org/dc/elements/1.1/" xmlns:inkscape="http://www.inkscape.org/namespaces/inkscape" xmlns:rdf="http://www.w3.org/1999/02/22-rdf-syntax-ns#" xmlns:sodipodi="http://sodipodi.sourceforge.net/DTD/sodipodi-0.dtd" xmlns:svg="http://www.w3.org/2000/svg" data-name="Layer 1" id="Layer_1" inkscape:version="0.92.2 5c3e80d, 2017-08-06" sodipodi:docname="user.svg" version="1.1" viewBox="0 0 500 500">
  <metadata id="metadata15">
    <rdf:RDF>
      <cc:Work rdf:about="">
        <dc:format>image/svg+xml</dc:format>
        <dc:type rdf:resource="http://purl.org/dc/dcmitype/StillImage"/>
      </cc:Work>
    </rdf:RDF>
  </metadata>
  <sodipodi:namedview bordercolor="#666666" borderopacity="1" gridtolerance="10" guidetolerance="10" id="namedview13" inkscape:current-layer="Layer_1" inkscape:cx="250" inkscape:cy="250" inkscape:pageopacity="0" inkscape:pageshadow="2" inkscape:window-height="774" inkscape:window-maximized="0" inkscape:window-width="1317" inkscape:window-x="0" inkscape:window-y="0" inkscape:zoom="0.472" objecttolerance="10" pagecolor="#ffffff" showgrid="false"/>
  <defs id="defs4">
    <style id="style2">.cls-1{fill:#177f95;}.cls-2{fill:#fff;}</style>
  </defs>
  <title id="title6">user</title>
  <path d="M 244.5 21 A 228.5 228.5 0 0 0 16 249.5 A 228.5 228.5 0 0 0 244.5 478 A 228.5 228.5 0 0 0 473 249.5 A 228.5 228.5 0 0 0 244.5 21 z M 244.5293 102.86914 C 277.3793 102.86914 304 136.15094 304 177.21094 C 304 209.00094 288.00008 235.84977 265.58008 246.50977 L 270.66992 264.73047 C 312.12992 277.63047 338.49016 320.26922 347.41016 369.69922 C 354.68016 410.05922 135.53906 399.41922 141.53906 369.69922 C 152.14906 316.78922 177.77906 275.79008 219.53906 264.08008 L 223.75 246.65039 C 201.16 236.11039 185 209.12094 185 177.21094 C 185 136.15094 211.6793 102.86914 244.5293 102.86914 z " id="circle8" style="fill:#177f95;fill-opacity:1"/>
</svg>
